<svg xmlns="http://www.w3.org/2000/svg" aria-hidden="true">  <symbol id="brand" viewBox="0 0 24 24"><g fill="currentColor"><path d="M2 12c0-4.714 0-7.071 1.464-8.536C4.93 2 7.286 2 12 2c4.714 0 7.071 0 8.535 1.464C22 4.93 22 7.286 22 12c0 4.714 0 7.071-1.465 8.535C19.072 22 16.714 22 12 22s-7.071 0-8.536-1.465C2 19.072 2 16.714 2 12Z" opacity=".5"/><path d="M22 5a3 3 0 1 1-6 0a3 3 0 0 1 6 0Zm-7.5 5.75a.75.75 0 0 1 0-1.5H17a.75.75 0 0 1 .75.75v2.5a.75.75 0 0 1-1.5 0v-.69l-2.013 2.013a1.75 1.75 0 0 1-2.474 0l-1.586-1.586a.25.25 0 0 0-.354 0L7.53 14.53a.75.75 0 0 1-1.06-1.06l2.293-2.293a1.75 1.75 0 0 1 2.474 0l1.586 1.586a.25.25 0 0 0 .354 0l2.012-2.013H14.5Z"/></g></symbol>  <symbol id="arrow-right" viewBox="0 0 24 24"><path fill="none" stroke="currentColor" stroke-linecap="round" stroke-linejoin="round" stroke-width="1.5" d="M4 12h16m0 0l-6-6m6 6l-6 6"/></symbol>  <symbol id="copy" viewBox="0 0 24 24"><g fill="none" stroke="currentColor" stroke-width="1.5"><path d="M6 11c0-2.828 0-4.243.879-5.121C7.757 5 9.172 5 12 5h3c2.828 0 4.243 0 5.121.879C21 6.757 21 8.172 21 11v5c0 2.828 0 4.243-.879 5.121C19.243 22 17.828 22 15 22h-3c-2.828 0-4.243 0-5.121-.879C6 20.243 6 18.828 6 16v-5Z"/><path d="M6 19a3 3 0 0 1-3-3v-6c0-3.771 0-5.657 1.172-6.828C5.343 2 7.229 2 11 2h4a3 3 0 0 1 3 3"/></g></symbol>  <symbol id="document" viewBox="0 0 24 24"><g fill="none" stroke="currentColor" stroke-width="1.5"><path d="M3 10c0-3.771 0-5.657 1.172-6.828C5.343 2 7.229 2 11 2h2c3.771 0 5.657 0 6.828 1.172C21 4.343 21 6.229 21 10v4c0 3.771 0 5.657-1.172 6.828C18.657 22 16.771 22 13 22h-2c-3.771 0-5.657 0-6.828-1.172C3 19.657 3 17.771 3 14v-4Z"/><path stroke-linecap="round" d="M8 10h8m-8 4h5"/></g></symbol>  <symbol id="download" viewBox="0 0 24 24"><g fill="none" stroke="currentColor" stroke-linecap="round" stroke-width="1.5"><path d="M17 9.002c2.175.012 3.353.109 4.121.877C22 10.758 22 12.172 22 15v1c0 2.829 0 4.243-.879 5.122C20.243 22 18.828 22 16 22H8c-2.828 0-4.243 0-5.121-.878C2 20.242 2 18.829 2 16v-1c0-2.828 0-4.242.879-5.121c.768-.768 1.946-.865 4.121-.877"/><path stroke-linejoin="round" d="M12 2v13m0 0l-3-3.5m3 3.5l3-3.5"/></g></symbol>  <symbol id="external-link" viewBox="0 0 24 24"><g fill="none" stroke="currentColor" stroke-linecap="round" stroke-width="1.5"><path stroke-linejoin="round" d="m13 11l9-9m0 0h-5.344M22 2v5.344"/><path d="M22 12c0 4.714 0 7.071-1.465 8.535C19.072 22 16.714 22 12 22s-7.071 0-8.536-1.465C2 19.072 2 16.714 2 12s0-7.071 1.464-8.536C4.93 2 7.286 2 12 2"/></g></symbol>  <symbol id="info" viewBox="0 0 24 24"><g fill="none"><circle cx="12" cy="12" r="10" stroke="currentColor" stroke-width="1.5"/><path stroke="currentColor" stroke-linecap="round" stroke-width="1.5" d="M12 17v-6"/><circle cx="1" cy="1" r="1" fill="currentColor" transform="matrix(1 0 0 -1 11 9)"/></g></symbol>  <symbol id="check" viewBox="0 0 24 24"><g fill="none" stroke="currentColor" stroke-width="1.5"><circle cx="12" cy="12" r="10"/><path stroke-linecap="round" stroke-linejoin="round" d="m8.5 12.5l2 2l5-5"/></g></symbol>  <symbol id="warning" viewBox="0 0 24 24"><g fill="none"><circle cx="12" cy="12" r="10" stroke="currentColor" stroke-width="1.5"/><path stroke="currentColor" stroke-linecap="round" stroke-width="1.5" d="M12 7v6"/><circle cx="12" cy="16" r="1" fill="currentColor"/></g></symbol>  <symbol id="user" viewBox="0 0 24 24"><g fill="none" stroke="currentColor" stroke-width="1.5"><circle cx="12" cy="6" r="4"/><path d="M20 17.5c0 2.485 0 4.5-8 4.5s-8-2.015-8-4.5S7.582 13 12 13s8 2.015 8 4.5Z"/></g></symbol>  <symbol id="key" viewBox="0 0 24 24"><g fill="none" stroke="currentColor" stroke-width="1.5"><path stroke-linejoin="round" d="M15.68 14.587c3.49 0 6.32-2.818 6.32-6.294C22 4.818 19.17 2 15.68 2S9.362 4.818 9.362 8.293c0 1.61.735 2.781.735 2.781l-7.642 7.61c-.343.342-.823 1.23 0 2.05l.882.878c.343.293 1.205.703 1.91 0l1.03-1.024c1.028 1.024 2.204.439 2.645-.147c.734-1.024-.147-2.049-.147-2.049l.294-.293c1.41 1.405 2.645.586 3.086 0c.735-1.024 0-2.049 0-2.049c-.294-.585-.882-.585-.147-1.317l.882-.878c.705.585 2.155.732 2.792.732Z"/><path d="M17.885 8.294a2.2 2.2 0 0 1-2.204 2.195a2.2 2.2 0 0 1-2.204-2.195a2.2 2.2 0 0 1 2.204-2.196a2.2 2.2 0 0 1 2.204 2.196Z"/></g></symbol>  <symbol id="building" viewBox="0 0 24 24"><g fill="none" stroke="currentColor" stroke-width="1.5"><path stroke-linecap="round" d="M22 22H2"/><path d="M21 22V6c0-1.886 0-2.828-.586-3.414C19.828 2 18.886 2 17 2h-2c-1.886 0-2.828 0-3.414.586c-.472.471-.564 1.174-.582 2.414"/><path d="M15 22V9c0-1.886 0-2.828-.586-3.414C13.828 5 12.886 5 11 5H7c-1.886 0-2.828 0-3.414.586C3 6.172 3 7.114 3 9v13"/><path stroke-linecap="round" d="M9 22v-3M6 8h6m-6 3h6m-6 3h6"/></g></symbol>  <symbol id="chevron-down" viewBox="0 0 24 24"><path fill="none" stroke="currentColor" stroke-linecap="round" stroke-linejoin="round" stroke-width="1.5" d="m19 9l-7 6l-7-6"/></symbol></svg>