<svg width="64" height="64" viewBox="0 0 64 64" fill="none" xmlns="http://www.w3.org/2000/svg" role="img" aria-labelledby="title desc">
  <title id="title">Douyin business data engine orange brand icon</title>
  <desc id="desc">The enlarged analytics icon used in the business data engine brand mark, without an outer tile, switching orange color for light and dark browser themes.</desc>
  <style>
    :root {
      color: #D63B00;
    }

    @media (prefers-color-scheme: dark) {
      :root {
        color: #FE5205;
      }
    }
  </style>
  <g transform="translate(-14 5) scale(3.4)" fill="currentColor">
    <path d="M22 5a3 3 0 1 1-6 0a3 3 0 0 1 6 0Zm-7.5 5.75a.75.75 0 0 1 0-1.5H17a.75.75 0 0 1 .75.75v2.5a.75.75 0 0 1-1.5 0v-.69l-2.013 2.013a1.75 1.75 0 0 1-2.474 0l-1.586-1.586a.25.25 0 0 0-.354 0L7.53 14.53a.75.75 0 0 1-1.06-1.06l2.293-2.293a1.75 1.75 0 0 1 2.474 0l1.586 1.586a.25.25 0 0 0 .354 0l2.012-2.013H14.5Z"/>
  </g>
</svg>
