<svg xmlns="http://www.w3.org/2000/svg" viewBox="0 0 1254 255" role="img" aria-label="SPACE">
  <g fill="#FE5205">
    <path d="M 565.71407 78.16338
C 579.72957 71.72158 594.70452 65.96573 609.98287 61.14327
C 625.26122 56.3208 640.83794 52.43471 656.03345 49.71255
C 671.22896 46.99039 686.03755 45.43313 699.83614 45.21665
C 713.63472 45.00017 726.41975 46.11727 737.70284 48.72895
C 748.98594 51.34064 758.808 55.43918 766.62097 61.33739
C 774.43393 67.2356 780.20004 75.12055 782.69848 84.26784
C 777.01508 85.59234 771.33167 86.91683 765.64827 88.24132
C 764.75269 82.82488 762.16365 77.61542 757.08519 72.55436
C 752.00673 67.4933 744.40566 62.77162 734.61987 59.15061
C 724.83407 55.52961 712.91192 53.00377 699.62138 51.91935
C 686.33084 50.83492 671.67795 51.185 656.53773 53.0485
C 641.39751 54.912 625.77499 58.28826 610.57706 63.03554
C 595.37913 67.78282 580.61155 73.90072 567.13066 81.03292
C 566.65846 80.0764 566.18626 79.11989 565.71407 78.16338
Z"/>
  </g>
  <g fill="#70747A">
    <path d="M0 0 C1.313 -0.006 2.627 -0.011 3.98 -0.017 C5.435 -0.018 6.89 -0.02 8.389 -0.021 C9.15 -0.023 9.15 -0.023 13.001 -0.036 C18.068 -0.05 23.134 -0.057 28.2 -0.063 C31.713 -0.068 35.225 -0.074 38.737 -0.08 C46.119 -0.09 53.501 -0.096 60.883 -0.1 C70.331 -0.105 79.779 -0.129 89.227 -0.158 C96.49 -0.176 103.754 -0.182 111.018 -0.183 C114.5 -0.186 117.981 -0.194 121.463 -0.207 C126.346 -0.224 131.229 -0.222 136.112 -0.216 C136.828 -0.221 136.828 -0.221 140.453 -0.244 C157.59 -0.173 173.071 4.159 183.962 18.14 C190.682 29.675 191.422 41.134 191.587 54.14 C191.616 54.9 191.616 54.9 191.763 58.742 C191.905 71.209 191.905 71.209 187.208 75.851 C185.807 76.937 184.406 78.022 182.962 79.14 C174.958 88.456 169.506 98.78 164.962 110.14 C162.064 111.687 162.064 111.687 158.587 112.89 C157.445 113.298 156.303 113.705 155.126 114.125 C148.932 116.113 143.303 116.276 136.86 116.254 C136.294 116.254 136.294 116.254 133.429 116.254 C129.685 116.254 125.941 116.246 122.197 116.238 C119.602 116.236 117.007 116.235 114.411 116.234 C107.579 116.23 100.747 116.22 93.914 116.209 C86.943 116.199 79.972 116.194 73.001 116.189 C59.322 116.179 45.642 116.161 31.962 116.14 C32.036 117.006 32.109 117.871 32.185 118.763 C32.819 126.768 33.049 134.639 32.841 142.664 C32.829 143.22 32.829 143.22 32.77 146.034 C32.694 149.528 32.61 153.022 32.525 156.515 C32.471 158.909 32.419 161.302 32.367 163.695 C32.239 169.51 32.103 175.325 31.962 181.14 C25.65 181.169 19.337 181.187 13.025 181.203 C11.221 181.211 9.417 181.22 7.558 181.228 C5.847 181.232 4.135 181.235 2.372 181.238 C1.579 181.241 1.579 181.241 -2.436 181.254 C-6.038 181.14 -6.038 181.14 -7.038 180.14 C-7.137 177.839 -7.164 175.535 -7.165 173.231 C-7.168 171.725 -7.17 170.219 -7.173 168.668 C-7.171 166.999 -7.169 165.33 -7.167 163.611 C-7.169 161.867 -7.171 160.122 -7.173 158.325 C-7.177 152.524 -7.174 146.723 -7.171 140.922 C-7.171 136.912 -7.172 132.903 -7.174 128.893 C-7.175 120.477 -7.173 112.06 -7.168 103.643 C-7.163 93.897 -7.164 84.151 -7.17 74.405 C-7.175 66.054 -7.175 57.702 -7.173 49.351 C-7.171 44.356 -7.171 39.361 -7.174 34.366 C-7.177 28.8 -7.173 23.235 -7.167 17.67 C-7.169 16.001 -7.171 14.333 -7.173 12.613 C-7.171 11.107 -7.168 9.601 -7.165 8.049 C-7.164 6.732 -7.164 5.414 -7.164 4.056 C-6.941 -1.103 -4.618 0.012 0 0 Z M32.962 37.14 C32.962 51.66 32.962 66.18 32.962 81.14 C46.662 81.208 60.362 81.263 74.062 81.296 C80.423 81.312 86.785 81.333 93.146 81.367 C99.286 81.399 105.426 81.417 111.567 81.425 C113.908 81.431 116.25 81.441 118.591 81.458 C121.873 81.479 125.155 81.482 128.437 81.481 C130.305 81.488 132.172 81.494 134.096 81.501 C141.409 80.959 144.789 79.314 149.962 74.14 C151.571 69.314 151.189 64.308 151.212 59.265 C151.233 58.176 151.253 57.087 151.275 55.965 C151.311 48.455 150.387 44.566 144.962 39.14 C138.757 37.08 133.014 36.898 126.507 36.913 C125.492 36.913 124.476 36.913 123.43 36.913 C120.097 36.914 116.764 36.929 113.431 36.945 C111.111 36.949 108.79 36.952 106.47 36.954 C100.381 36.961 94.292 36.981 88.202 37.003 C81.982 37.024 75.761 37.033 69.54 37.043 C57.348 37.064 45.155 37.099 32.962 37.14 Z" fill-rule="evenodd" transform="translate(309.0377960205078,47.85955810546875)"/>
    <path d="M0 0 C1.621 -0 3.242 -0.001 4.912 -0.001 C10.231 0.001 15.549 0.016 20.868 0.032 C24.571 0.035 28.274 0.038 31.977 0.04 C41.695 0.048 51.412 0.068 61.13 0.09 C71.057 0.11 80.985 0.119 90.913 0.129 C110.371 0.151 129.828 0.185 149.286 0.227 C143.66 11.478 131.859 20.739 122.973 29.665 C122.239 30.404 121.504 31.144 120.747 31.906 C114.115 38.517 110.558 38.377 101.404 38.385 C100.784 38.387 100.784 38.387 97.649 38.4 C94.95 38.411 92.252 38.419 89.553 38.426 C85.283 38.438 81.013 38.457 76.744 38.479 C64.601 38.541 52.459 38.595 40.316 38.628 C32.896 38.649 25.476 38.685 18.057 38.729 C15.226 38.743 12.395 38.752 9.564 38.755 C5.604 38.76 1.645 38.783 -2.315 38.811 C-3.487 38.808 -4.659 38.805 -5.867 38.801 C-16.231 38.908 -16.231 38.908 -20.714 42.227 C-23.939 47.602 -24.121 49.638 -24.089 55.727 C-24.097 57.202 -24.105 58.676 -24.113 60.196 C-23.714 64.227 -23.714 64.227 -20.714 69.227 C-14.869 72.735 -9.028 72.651 -2.401 72.612 C-1.282 72.617 -0.162 72.623 0.992 72.628 C3.416 72.638 5.841 72.641 8.266 72.638 C12.114 72.633 15.962 72.647 19.81 72.666 C27.989 72.703 36.169 72.717 44.348 72.727 C53.807 72.739 63.266 72.761 72.725 72.807 C76.497 72.821 80.269 72.816 84.041 72.812 C103.609 72.856 122.224 73.845 136.286 89.227 C148.383 106.701 148.342 127.241 143.286 147.227 C137.907 161.881 128.921 171.791 114.286 177.227 C102.552 180.766 90.485 180.367 78.352 180.341 C76.565 180.341 74.779 180.341 72.939 180.341 C68.065 180.34 63.192 180.335 58.319 180.328 C53.217 180.322 48.114 180.322 43.012 180.32 C33.362 180.317 23.711 180.309 14.061 180.299 C3.069 180.288 -7.922 180.282 -18.914 180.277 C-41.514 180.267 -64.114 180.249 -86.714 180.227 C-86.714 175.326 -83.169 173.33 -79.784 169.969 C-79.079 169.266 -78.373 168.562 -77.646 167.837 C-76.152 166.349 -74.654 164.865 -73.152 163.384 C-70.849 161.111 -68.556 158.829 -66.265 156.543 C-56.371 146.712 -53.115 144.08 -39.028 144.085 C-37.597 144.082 -36.166 144.078 -34.692 144.075 C-31.574 144.067 -28.456 144.062 -25.338 144.058 C-20.404 144.051 -15.47 144.036 -10.537 144.017 C3.496 143.964 17.528 143.917 31.56 143.901 C40.134 143.891 48.708 143.862 57.282 143.82 C60.552 143.807 63.822 143.802 67.092 143.805 C71.67 143.807 76.246 143.785 80.823 143.757 C81.499 143.76 81.499 143.76 84.92 143.777 C91.99 143.707 97.262 143.373 103.286 139.227 C105.7 134.398 105.586 131.17 105.598 125.79 C105.607 124.955 105.607 124.955 105.649 120.731 C105.234 115.585 104.097 112.519 99.78 109.44 C94.896 107.745 90.546 107.84 85.378 107.826 C84.289 107.819 83.201 107.812 82.079 107.805 C78.482 107.785 74.886 107.786 71.29 107.786 C68.778 107.774 66.267 107.761 63.756 107.746 C57.138 107.709 50.52 107.689 43.902 107.674 C33.343 107.649 22.783 107.609 12.224 107.552 C8.554 107.536 4.883 107.532 1.213 107.529 C-41.69 107.398 -41.69 107.398 -55.683 90.907 C-64.029 79.625 -65.899 68.747 -65.964 55.04 C-65.985 53.966 -66.005 52.893 -66.027 51.788 C-66.112 34.05 -59.108 21.389 -45.902 9.915 C-31.582 0.725 -16.619 -0.079 0 0 Z" fill-rule="evenodd" transform="translate(123.714111328125,48.77294921875)"/>
    <path d="M0 0 C1.211 -0 2.423 -0 3.671 -0 C7.626 0 11.581 0.008 15.536 0.016 C18.297 0.018 21.059 0.019 23.82 0.02 C31.052 0.024 38.284 0.034 45.516 0.045 C52.91 0.055 60.304 0.06 67.698 0.065 C82.179 0.075 96.66 0.092 111.141 0.114 C111.141 4.385 109.215 5.243 106.141 8.114 C105.218 9.032 104.294 9.95 103.342 10.897 C102.347 11.886 101.351 12.875 100.325 13.895 C98.076 16.134 95.827 18.374 93.579 20.614 C92.443 21.741 91.306 22.869 90.135 24.031 C89.043 25.121 87.951 26.21 86.825 27.332 C86.328 27.827 86.328 27.827 83.811 30.33 C81.141 33.114 81.141 33.114 79.513 35.749 C76.017 39.234 73.39 38.733 68.524 38.725 C66.741 38.735 64.958 38.745 63.122 38.756 C61.189 38.742 59.257 38.729 57.266 38.715 C55.261 38.721 53.255 38.729 51.249 38.739 C45.96 38.762 40.671 38.758 35.382 38.746 C26.945 38.727 18.509 38.737 10.073 38.771 C7.139 38.777 4.206 38.764 1.273 38.749 C-10.761 38.774 -21.431 39.37 -32.296 45.051 C-33.244 45.534 -34.191 46.018 -35.167 46.516 C-48.711 54.555 -55.892 69.914 -57.859 85.114 C-58.974 105.049 -55.709 122.909 -40.859 137.114 C-29.825 144.556 -18.383 147.232 -5.181 147.255 C-4.643 147.257 -4.643 147.257 -1.922 147.266 C0.41 147.273 2.742 147.279 5.074 147.282 C8.764 147.289 12.454 147.305 16.144 147.324 C26.634 147.376 37.124 147.424 47.615 147.439 C54.033 147.45 60.451 147.479 66.869 147.521 C69.316 147.533 71.762 147.538 74.209 147.536 C77.627 147.534 81.045 147.556 84.464 147.583 C86.409 147.589 88.355 147.595 90.36 147.601 C98.739 148.499 101.848 153.937 107.141 160.114 C108.637 161.784 110.137 163.451 111.641 165.114 C112.394 165.951 113.147 166.789 113.923 167.653 C115.985 169.94 118.063 172.215 120.141 174.489 C123.141 178.114 123.141 178.114 124.141 182.114 C105.642 182.16 87.144 182.195 68.645 182.217 C60.054 182.228 51.463 182.242 42.872 182.264 C34.572 182.286 26.273 182.298 17.974 182.303 C14.816 182.307 11.659 182.314 8.501 182.325 C4.06 182.34 -0.382 182.341 -4.823 182.341 C-5.468 182.344 -5.468 182.344 -8.729 182.362 C-37.5 182.298 -63.682 175.158 -82.941 152.684 C-102.27 126.766 -104.268 95.405 -96.827 64.883 C-89.226 38.456 -72.012 17.953 -46.925 6.688 C-31.753 0.814 -16.088 -0.052 0 0 Z" fill-rule="evenodd" transform="translate(884.858642578125,48.886474609375)"/>
    <path d="M0 0 C0.742 -0 0.742 -0 4.497 -0 C9.372 0 14.247 0.008 19.122 0.016 C22.514 0.018 25.907 0.019 29.299 0.02 C38.204 0.024 47.109 0.034 56.015 0.045 C65.111 0.055 74.208 0.06 83.304 0.065 C101.135 0.075 118.967 0.092 136.798 0.114 C136.798 5.349 134.625 6.541 130.99 10 C127.701 13.172 124.803 16.673 121.798 20.114 C119.504 22.734 117.19 25.337 114.861 27.926 C113.717 29.211 112.574 30.496 111.396 31.821 C103.238 39.288 94.303 38.529 83.835 38.454 C83.035 38.454 83.035 38.454 78.984 38.455 C73.703 38.453 68.423 38.43 63.142 38.406 C59.476 38.401 55.811 38.397 52.145 38.394 C42.505 38.382 32.865 38.353 23.225 38.32 C13.385 38.289 3.544 38.275 -6.296 38.26 C-25.598 38.228 -44.9 38.177 -64.202 38.114 C-62.391 34.492 -60.853 32.456 -58.139 29.551 C-54.837 25.957 -51.691 22.298 -48.639 18.489 C-34.401 1.072 -21.213 -0.055 0 0 Z" fill-rule="evenodd" transform="translate(1085.201904296875,48.886474609375)"/>
    <path d="M0 0 C1.221 -0.001 2.441 -0.001 3.699 -0.002 C7.703 0.001 11.706 0.04 15.71 0.079 C18.499 0.089 21.287 0.096 24.075 0.101 C31.391 0.12 38.706 0.169 46.022 0.224 C53.496 0.276 60.971 0.298 68.445 0.323 C83.093 0.377 97.742 0.462 112.39 0.568 C110.444 4.459 108.788 6.35 105.703 9.318 C102.625 12.329 99.73 15.322 96.89 18.568 C94.08 21.779 91.237 24.883 88.265 27.943 C87.862 28.359 87.862 28.359 85.82 30.466 C80.01 35.492 73.557 34.84 66.348 34.795 C65.738 34.795 65.738 34.795 62.651 34.796 C58.62 34.794 54.589 34.779 50.558 34.763 C47.763 34.759 44.967 34.756 42.172 34.754 C34.815 34.747 27.458 34.727 20.102 34.705 C12.594 34.684 5.087 34.675 -2.42 34.665 C-17.15 34.644 -31.88 34.61 -46.61 34.568 C-44.316 29.98 -41.534 27.144 -37.985 23.443 C-33.84 19.087 -29.91 14.794 -26.36 9.943 C-18.991 1.345 -10.896 -0.173 0 0 Z" fill-rule="evenodd" transform="translate(1075.60986328125,125.432373046875)"/>
    <path d="M0 0 C0.67 -0.001 0.67 -0.001 4.062 -0.009 C5.526 -0.007 6.99 -0.004 8.498 -0.002 C10.045 -0.004 11.592 -0.006 13.185 -0.008 C18.306 -0.012 23.426 -0.009 28.547 -0.006 C32.097 -0.007 35.648 -0.007 39.198 -0.009 C46.641 -0.01 54.084 -0.008 61.527 -0.003 C71.086 0.002 80.644 -0.001 90.202 -0.007 C97.533 -0.011 104.865 -0.009 112.196 -0.007 C115.721 -0.006 119.247 -0.007 122.772 -0.009 C127.69 -0.012 132.608 -0.008 137.526 -0.002 C138.26 -0.003 138.26 -0.003 141.975 -0.009 C143.309 -0.006 144.644 -0.003 146.019 0 C147.183 0 148.346 0.001 149.544 0.001 C152.383 0.127 152.383 0.127 155.383 1.127 C152.904 6.085 149.661 9.002 145.695 12.877 C141.501 16.981 137.442 21.058 133.594 25.49 C127.584 32.297 121.614 34.254 112.751 34.247 C111.383 34.249 110.014 34.25 108.604 34.251 C107.854 34.25 107.854 34.25 104.057 34.241 C102.477 34.241 100.896 34.241 99.268 34.241 C94.03 34.24 88.792 34.232 83.555 34.225 C79.928 34.223 76.302 34.221 72.675 34.22 C63.121 34.217 53.566 34.207 44.011 34.196 C34.265 34.185 24.519 34.181 14.773 34.176 C-4.357 34.165 -23.487 34.148 -42.617 34.127 C-42.617 29.852 -40.688 29.028 -37.617 26.127 C-35.483 23.865 -33.358 21.594 -31.242 19.314 C-30.671 18.7 -30.671 18.7 -27.777 15.588 C-25.339 12.918 -22.989 10.219 -20.68 7.439 C-14.758 1.034 -8.496 0.003 0 0 Z" fill-rule="evenodd" transform="translate(1063.6173400878906,196.87301635742188)"/>
    <path d="M 632.8 17.2
C 633.8 17.2 634.4 17.8 635.0 18.8
L 759.1 222.8
C 759.9 224.1 759.0 225.4 757.4 225.4
L 714.0 225.4
L 633.0 86.8
L 550.1 225.4
L 504.7 225.4
L 630.8 18.8
C 631.3 17.8 631.9 17.2 632.8 17.2
Z"/>
  </g>
  <g fill="#FE5205">
    <path d="M 780.61792 78.45996
C 785.08353 88.42011 785.17366 100.17178 781.36976 111.55807
C 777.56585 122.94436 770.11051 134.14538 759.92794 144.82599
C 749.74538 155.5066 736.79156 165.69104 721.9107 174.9778
C 707.02984 184.26457 690.22351 192.64465 672.51441 199.65195
C 654.8053 206.65926 636.20213 212.28808 617.81565 216.11612
C 599.42917 219.94416 581.26893 221.96971 564.39383 221.87478
C 547.51872 221.77985 531.92313 219.57747 518.54532 214.98229
C 505.16751 210.38712 493.88152 203.30573 486.37236 193.70124
C 478.8632 184.09676 475.7228 171.97981 477.35088 160.52189
C 478.97896 149.06397 484.75971 138.35123 493.16882 128.34581
C 501.57793 118.34038 512.74495 108.91369 525.97242 100.08376
C 539.1999 91.25383 554.49946 83.04655 570.9907 75.79034
C 571.40126 76.66586 571.81182 77.54138 572.22238 78.4169
C 556.25994 86.37932 541.90033 95.78476 530.27446 105.76725
C 518.64859 115.74973 509.78388 126.32321 504.34131 136.14939
C 498.89874 145.97558 497.01667 154.91331 497.69042 161.59212
C 498.36418 168.27094 500.97856 172.76547 505.54304 177.12071
C 510.10751 181.47595 517.20634 185.69368 527.27777 188.97076
C 537.34921 192.24784 550.25239 194.48585 564.99296 195.09833
C 579.73353 195.71082 596.2858 194.71034 613.35463 191.98414
C 630.42347 189.25793 647.99592 184.80845 664.72949 178.89684
C 681.46306 172.98523 697.34461 165.614 711.1801 157.38521
C 725.01558 149.15643 736.78837 140.0722 745.66582 131.03774
C 754.54326 122.00328 760.46926 113.05532 763.46056 105.22514
C 766.45186 97.39495 766.74675 90.87486 764.81277 84.74703
C 770.08116 82.65134 775.34954 80.55565 780.61792 78.45996
Z"/>
  </g>
</svg>
